# xmcd CD database file
#
# Track frame offsets:
#	150
#	14622
#	30666
#	43910
#	62102
#	76201
#	98361
#	114457
#	131579
#	144993
#	166090
#	181427
#
# Disc length: 2647 seconds
#
# Revision: 1
# Processed by: cddbd v1.5PL3 Copyright (c) Steve Scherf et al.
# Submitted via: cdripper 1.0.7
#
DISCID=960a550c
DTITLE=Pam Mayo - Looking For Alex
DYEAR=1996
DGENRE=Blues
TTITLE0=I Don't Need
TTITLE1=Heaven
TTITLE2=The Officials
TTITLE3=Alex-B
TTITLE4=Passion
TTITLE5=No Easy Way
TTITLE6=Lost Out
TTITLE7=Roses and Stones
TTITLE8=Tonight
TTITLE9=Bad News
TTITLE10=You Know It's True
TTITLE11=Sea of Glass
EXTD=YEAR: 1996
EXTT0=
EXTT1=
EXTT2=
EXTT3=
EXTT4=
EXTT5=
EXTT6=
EXTT7=
EXTT8=
EXTT9=
EXTT10=
EXTT11=
PLAYORDER=
